<svg width="72" height="72" viewBox="0 0 72 72" fill="none" xmlns="http://www.w3.org/2000/svg">
<path d="M0 35.9937C0 16.1149 16.1149 0 35.9937 0C55.8724 0 71.9873 16.1149 71.9873 35.9937C71.9873 55.8724 55.8724 71.9873 35.9937 71.9873C16.1149 71.9873 0 55.8724 0 35.9937Z" fill="#30D158" fill-opacity="0.15"/>
<path d="M35.9933 50.9874C44.2741 50.9874 50.987 44.2745 50.987 35.9937C50.987 27.7128 44.2741 20.9999 35.9933 20.9999C27.7124 20.9999 20.9995 27.7128 20.9995 35.9937C20.9995 44.2745 27.7124 50.9874 35.9933 50.9874Z" stroke="#30D158" stroke-width="2.99875" stroke-linecap="round" stroke-linejoin="round"/>
<path d="M31.4951 35.9937L34.4939 38.9924L40.4914 32.9949" stroke="#30D158" stroke-width="2.99875" stroke-linecap="round" stroke-linejoin="round"/>
</svg>
