<svg width="18" height="24" viewBox="0 0 18 24" fill="none" xmlns="http://www.w3.org/2000/svg">
<path d="M2.74951 0C1.98901 0 1.27951 0.259208 0.772511 0.691222C0.274125 1.11932 -0.00205063 1.68306 1.14649e-05 2.26807V22.8007C0.000187925 23.0267 0.0801477 23.2481 0.230685 23.4394C0.381222 23.6307 0.596216 23.784 0.850914 23.8818C1.10561 23.9796 1.38966 24.0179 1.67035 23.9922C1.95104 23.9666 2.21697 23.878 2.43751 23.7367L9.00001 19.5366L15.5625 23.7367C15.783 23.878 16.049 23.9666 16.3297 23.9922C16.6104 24.0179 16.8944 23.9796 17.1491 23.8818C17.4038 23.784 17.6188 23.6307 17.7693 23.4394C17.9199 23.2481 17.9998 23.0267 18 22.8007V2.26687C18 1.68965 17.733 1.12204 17.2275 0.691222C16.9746 0.473919 16.6687 0.300451 16.3286 0.181555C15.9886 0.0626596 15.6216 0.000866377 15.2505 0H2.74951Z" fill="#6A7273"/>
</svg>
