<svg width="26" height="26" viewBox="0 0 26 26" fill="none" xmlns="http://www.w3.org/2000/svg">
<path d="M1.09886 14.9641L2.80281 14.9747C3.05761 16.2858 3.5619 17.5598 4.32629 18.717L3.116 19.9167C2.68072 20.3467 2.68072 21.042 3.10538 21.4773L4.41122 22.7991C4.84119 23.2344 5.53657 23.2344 5.97185 22.8097L7.18214 21.61C8.32873 22.385 9.59741 22.9106 10.9086 23.176L10.8979 24.8799C10.8926 25.4904 11.3863 25.9841 11.9967 25.9894L13.8546 26C14.4651 26.0053 14.9588 25.5116 14.9641 24.9012L14.9747 23.1972C16.2858 22.9424 17.5598 22.4381 18.717 21.6737L19.9167 22.884C20.3467 23.3193 21.042 23.3193 21.4773 22.8946L22.7991 21.5888C23.2344 21.1588 23.2344 20.4634 22.8097 20.0282L21.61 18.8179C22.385 17.6713 22.9106 16.4026 23.176 15.0915L24.8799 15.1021C25.4904 15.1074 25.9841 14.6137 25.9894 14.0033L26 12.1454C26.0053 11.5349 25.5116 11.0413 24.9012 11.0359L23.1972 11.0253C22.9424 9.71419 22.4381 8.4402 21.6737 7.283L22.884 6.08333C23.3193 5.65336 23.3193 4.95797 22.8946 4.52269L21.5888 3.20093C21.1588 2.76565 20.4634 2.76565 20.0282 3.19032L18.8179 4.38999C17.6713 3.61498 16.4026 3.08946 15.0915 2.82405L15.1021 1.12009C15.1074 0.509637 14.6137 0.0159672 14.0033 0.010659L12.1454 4.2411e-05C11.5349 -0.00526587 11.0413 0.488404 11.0359 1.09886L11.02 2.80281C9.70357 3.05761 8.42959 3.5619 7.27769 4.32629L6.07802 3.116C5.64805 2.68072 4.95266 2.68072 4.51739 3.10538L3.20093 4.41122C2.76565 4.84119 2.76565 5.53657 3.19032 5.97185L4.38999 7.18214C3.61498 8.32873 3.08946 9.59741 2.82405 10.9086L1.12009 10.8979C0.509637 10.8926 0.0159672 11.3863 0.010659 11.9967L4.2411e-05 13.8546C-0.00526587 14.4598 0.488404 14.9588 1.09886 14.9641ZM9.51778 9.48062C11.4606 7.55903 14.5872 7.57495 16.5088 9.51778C18.4304 11.4606 18.4145 14.5872 16.4716 16.5088C14.5288 18.4304 11.4022 18.4145 9.48062 16.4716C7.55903 14.5288 7.57495 11.4022 9.51778 9.48062Z" fill="#6A7273"/>
</svg>
