<svg width="60" height="60" viewBox="0 0 60 60" fill="none" xmlns="http://www.w3.org/2000/svg">
<path d="M0 14C0 6.26802 6.26802 0 14 0H45.9923C53.7243 0 59.9923 6.26802 59.9923 14V45.9923C59.9923 53.7243 53.7243 59.9923 45.9923 59.9923H14C6.26802 59.9923 0 53.7243 0 45.9923V14Z" fill="#BDFF00"/>
<path d="M29.9875 39.9948C34.8194 39.9948 38.7364 36.0778 38.7364 31.246C38.7364 26.4141 34.8194 22.4971 29.9875 22.4971C25.1557 22.4971 21.2386 26.4141 21.2386 31.246C21.2386 36.0778 25.1557 39.9948 29.9875 39.9948Z" stroke="#071416" stroke-width="2.49968"/>
<path d="M29.9875 26.2466V31.2459L33.7371 33.7456" stroke="#071416" stroke-width="2.49968" stroke-linecap="round"/>
<path d="M21.2387 18.7476L17.4891 22.4971M42.4859 22.4971L38.7364 18.7476" stroke="#071416" stroke-width="2.49968" stroke-linecap="round"/>
</svg>
